<svg width="76" height="76" viewBox="0 0 76 76" fill="none" xmlns="http://www.w3.org/2000/svg">
<path d="M45.4181 44.3552L48.7883 44.7089V72.1406L39.4795 62.2005V46.3866L42.1831 47.7069L45.4181 44.3552ZM30.5818 44.3552L27.2099 44.7089V72.1406L36.5186 62.2005V46.3866L33.8151 47.7069L30.5818 44.3552ZM56.1101 27.1691L57.2007 30.9653L53.9269 33.1725L53.6527 37.1166L49.8215 38.0704L48.218 41.6795L44.2903 41.2646L41.5479 44.0978L38 42.3645L34.452 44.0978L31.7096 41.2552L27.782 41.6701L26.1784 38.0612L22.3472 37.1166L22.0731 33.178L18.7899 30.9633L19.8807 27.1673L17.5659 23.9694L19.8881 20.775L18.7899 16.9864L22.0657 14.7792L22.3398 10.8404L26.1784 9.89603L27.782 6.28707L31.7096 6.7018L34.452 3.85938L38 5.59268L41.5479 3.85938L44.2903 6.7018L48.218 6.28707L49.8215 9.89603L53.6527 10.8497L53.9269 14.7884L57.2007 16.9956L56.1101 20.7918L58.434 23.9694L56.1101 27.1691ZM48.8049 23.9694C48.8049 21.8485 48.176 19.7752 46.9977 18.0118C45.8194 16.2483 44.1446 14.8739 42.1851 14.0622C40.2257 13.2506 38.0696 13.0383 35.9894 13.452C33.9093 13.8658 31.9986 14.8871 30.4989 16.3868C28.9992 17.8865 27.9779 19.7972 27.5641 21.8774C27.1503 23.9575 27.3627 26.1136 28.1743 28.0731C28.9859 30.0325 30.3604 31.7073 32.1239 32.8856C33.8873 34.0639 35.9606 34.6928 38.0815 34.6928C40.9241 34.6884 43.6491 33.5572 45.6592 31.5471C47.6692 29.537 48.8005 26.8121 48.8049 23.9694ZM38.0815 16.2086C36.5466 16.2086 35.0461 16.6638 33.7699 17.5165C32.4937 18.3693 31.499 19.5813 30.9116 20.9994C30.3242 22.4174 30.1705 23.9778 30.47 25.4832C30.7694 26.9886 31.5085 28.3714 32.5938 29.4568C33.6792 30.5421 35.062 31.2813 36.5674 31.5807C38.0728 31.8802 39.6332 31.7265 41.0512 31.1392C42.4693 30.5518 43.6813 29.5571 44.5341 28.2809C45.3869 27.0047 45.842 25.5043 45.8421 23.9694C45.8362 21.9135 45.0165 19.9435 43.5622 18.4903C42.1079 17.037 40.1374 16.2187 38.0815 16.2143V16.2086Z" fill="#004994"/>
</svg>
