<svg width="32" height="32" viewBox="0 0 32 32" fill="none" xmlns="http://www.w3.org/2000/svg">
<path d="M7 4H18.75C19.44 4 20 4.56 20 5.25V14C20 14.2652 20.1054 14.5196 20.2929 14.7071C20.4804 14.8946 20.7348 15 21 15H24.75C25.44 15 26 15.56 26 16.25V28H23V24.5C23 24.1022 22.842 23.7206 22.5607 23.4393C22.2794 23.158 21.8978 23 21.5 23H10.5C10.1022 23 9.72064 23.158 9.43934 23.4393C9.15804 23.7206 9 24.1022 9 24.5V28H6V5C6 4.73478 6.10536 4.48043 6.29289 4.29289C6.48043 4.10536 6.73478 4 7 4ZM21 28H17V25H21V28ZM15 28H11V25H15V28ZM27 30C27.2652 30 27.5196 29.8946 27.7071 29.7071C27.8946 29.5196 28 29.2652 28 29V16.25C28 15.8232 27.9159 15.4006 27.7526 15.0063C27.5893 14.612 27.3499 14.2537 27.0481 13.9519C26.7463 13.6501 26.388 13.4107 25.9937 13.2474C25.5994 13.0841 25.1768 13 24.75 13H22V5.25C22 4.8232 21.9159 4.40059 21.7526 4.00628C21.5893 3.61197 21.3499 3.25369 21.0481 2.9519C20.7463 2.65011 20.388 2.41072 19.9937 2.24739C19.5994 2.08406 19.1768 2 18.75 2H7C6.20435 2 5.44129 2.31607 4.87868 2.87868C4.31607 3.44129 4 4.20435 4 5V29C4 29.2652 4.10536 29.5196 4.29289 29.7071C4.48043 29.8946 4.73478 30 5 30H27ZM10.5 10C10.8978 10 11.2794 9.84196 11.5607 9.56066C11.842 9.27936 12 8.89782 12 8.5C12 8.10218 11.842 7.72064 11.5607 7.43934C11.2794 7.15804 10.8978 7 10.5 7C10.1022 7 9.72064 7.15804 9.43934 7.43934C9.15804 7.72064 9 8.10218 9 8.5C9 8.89782 9.15804 9.27936 9.43934 9.56066C9.72064 9.84196 10.1022 10 10.5 10ZM10.5 15C10.8978 15 11.2794 14.842 11.5607 14.5607C11.842 14.2794 12 13.8978 12 13.5C12 13.1022 11.842 12.7206 11.5607 12.4393C11.2794 12.158 10.8978 12 10.5 12C10.1022 12 9.72064 12.158 9.43934 12.4393C9.15804 12.7206 9 13.1022 9 13.5C9 13.8978 9.15804 14.2794 9.43934 14.5607C9.72064 14.842 10.1022 15 10.5 15ZM12 18.5C12 18.8978 11.842 19.2794 11.5607 19.5607C11.2794 19.842 10.8978 20 10.5 20C10.1022 20 9.72064 19.842 9.43934 19.5607C9.15804 19.2794 9 18.8978 9 18.5C9 18.1022 9.15804 17.7206 9.43934 17.4393C9.72064 17.158 10.1022 17 10.5 17C10.8978 17 11.2794 17.158 11.5607 17.4393C11.842 17.7206 12 18.1022 12 18.5ZM15.5 10C15.8978 10 16.2794 9.84196 16.5607 9.56066C16.842 9.27936 17 8.89782 17 8.5C17 8.10218 16.842 7.72064 16.5607 7.43934C16.2794 7.15804 15.8978 7 15.5 7C15.1022 7 14.7206 7.15804 14.4393 7.43934C14.158 7.72064 14 8.10218 14 8.5C14 8.89782 14.158 9.27936 14.4393 9.56066C14.7206 9.84196 15.1022 10 15.5 10ZM17 13.5C17 13.8978 16.842 14.2794 16.5607 14.5607C16.2794 14.842 15.8978 15 15.5 15C15.1022 15 14.7206 14.842 14.4393 14.5607C14.158 14.2794 14 13.8978 14 13.5C14 13.1022 14.158 12.7206 14.4393 12.4393C14.7206 12.158 15.1022 12 15.5 12C15.8978 12 16.2794 12.158 16.5607 12.4393C16.842 12.7206 17 13.1022 17 13.5ZM15.5 20C15.8978 20 16.2794 19.842 16.5607 19.5607C16.842 19.2794 17 18.8978 17 18.5C17 18.1022 16.842 17.7206 16.5607 17.4393C16.2794 17.158 15.8978 17 15.5 17C15.1022 17 14.7206 17.158 14.4393 17.4393C14.158 17.7206 14 18.1022 14 18.5C14 18.8978 14.158 19.2794 14.4393 19.5607C14.7206 19.842 15.1022 20 15.5 20ZM22 18.5C22 18.8978 21.842 19.2794 21.5607 19.5607C21.2794 19.842 20.8978 20 20.5 20C20.1022 20 19.7206 19.842 19.4393 19.5607C19.158 19.2794 19 18.8978 19 18.5C19 18.1022 19.158 17.7206 19.4393 17.4393C19.7206 17.158 20.1022 17 20.5 17C20.8978 17 21.2794 17.158 21.5607 17.4393C21.842 17.7206 22 18.1022 22 18.5Z" fill="white"/>
</svg>
